 <svg  version="1.0" xmlns="http://www.w3.org/2000/svg"  width="150.000000pt" height="150.000000pt" viewBox="0 0 150.000000 150.000000"  preserveAspectRatio="xMidYMid meet">  <g transform="translate(0.000000,150.000000) scale(0.100000,-0.100000)" fill="#1b486f" stroke="none"> <path d="M526 1395 c-3 -8 -3 -21 0 -28 3 -8 -2 -20 -11 -27 -8 -7 -15 -23 -15 -36 0 -15 -6 -24 -15 -24 -9 0 -15 9 -15 23 -1 12 -11 35 -24 51 -28 34 -41 21 -37 -36 3 -49 -16 -50 -48 -3 -25 37 -35 42 -46 24 -11 -16 4 -59 20 -59 8 0 15 -7 15 -15 0 -25 -66 -20 -84 6 -16 23 -46 20 -46 -4 0 -17 58 -60 71 -52 13 9 59 -35 59 -57 0 -27 44 -68 74 -68 14 0 34 9 43 20 13 14 30 20 63 20 45 1 90 25 90 49 0 6 7 11 15 11 8 0 15 -7 15 -15 0 -8 -7 -15 -15 -15 -8 0 -15 -7 -15 -15 0 -24 17 -18 55 20 26 27 35 44 35 70 0 19 6 38 14 42 19 11 31 89 15 98 -7 5 -19 -1 -29 -15 -23 -30 -55 -23 -56 13 -1 35 -10 43 -28 28 -10 -8 -12 -24 -9 -51 4 -30 2 -40 -8 -40 -16 0 -43 37 -45 60 -1 8 -2 21 -3 28 -1 17 -28 15 -35 -3z m36 -127 c4 -55 29 -62 69 -19 28 31 49 40 49 21 0 -5 -16 -25 -35 -45 -27 -26 -44 -35 -69 -35 -19 0 -39 -7 -46 -15 -7 -8 -27 -15 -45 -15 -18 0 -38 -7 -45 -15 -12 -14 -16 -13 -37 6 -30 29 -29 39 2 39 14 0 28 7 31 15 4 8 16 15 28 15 27 0 66 41 66 69 0 12 6 21 14 21 10 0 16 -14 18 -42z"/> <path d="M1237 1288 c-66 -66 -127 -121 -137 -122 -10 -1 -30 -13 -44 -28 -14 -16 -33 -28 -44 -28 -10 0 -31 -13 -47 -30 -16 -16 -37 -30 -47 -30 -10 0 -21 -6 -24 -14 -12 -30 -37 -27 -75 10 -29 29 -43 36 -64 32 -17 -4 -33 1 -43 11 -14 13 -33 15 -99 13 l-83 -4 0 -53 c0 -41 -4 -56 -17 -64 -14 -7 -18 -23 -18 -63 l0 -53 -95 4 c-63 2 -100 8 -111 17 -8 8 -23 14 -33 14 -9 0 -19 7 -23 15 -4 12 -18 15 -58 14 -48 -2 -56 1 -83 30 -45 50 -66 40 -70 -33 -2 -46 1 -62 12 -68 9 -5 16 -18 16 -29 0 -10 20 -39 45 -62 37 -36 45 -50 45 -80 0 -36 1 -37 40 -37 27 0 43 -5 46 -15 4 -8 16 -15 28 -15 12 0 33 -13 46 -30 16 -19 35 -29 53 -30 33 0 35 -12 5 -32 -12 -8 -18 -19 -14 -26 11 -19 34 -14 41 8 11 35 65 27 99 -16 l29 -37 17 23 18 23 11 -21 c7 -13 21 -22 35 -22 13 0 26 -6 29 -14 4 -9 14 -12 26 -9 14 3 23 0 27 -11 5 -12 20 -16 65 -16 67 0 76 -13 29 -45 -31 -21 -38 -39 -36 -94 2 -60 70 -70 71 -10 0 19 5 23 22 22 14 -2 27 5 33 17 6 11 21 20 34 20 13 0 27 7 30 16 8 21 29 6 23 -17 -3 -10 1 -23 9 -30 8 -6 14 -19 14 -29 0 -10 7 -23 15 -30 10 -9 15 -32 15 -74 0 -35 5 -67 12 -74 16 -16 43 -15 58 3 7 8 21 15 31 15 20 0 124 105 124 125 0 7 8 22 18 32 9 11 17 34 17 52 0 19 6 34 15 37 9 4 15 19 15 35 0 22 -6 30 -25 35 -14 3 -32 4 -40 0 -9 -3 -23 3 -32 14 -10 11 -28 20 -40 20 -13 0 -23 5 -23 10 0 6 -14 10 -31 10 -38 0 -35 24 4 28 21 3 27 9 27 28 0 14 7 27 15 30 8 4 15 15 15 27 0 11 20 40 45 64 37 35 45 49 45 78 0 22 6 38 15 41 20 8 19 30 -2 38 -13 5 -7 15 30 51 38 36 47 51 47 78 0 26 8 40 34 62 39 33 38 45 -5 45 -26 0 -29 3 -29 30 0 17 3 30 8 30 4 0 19 11 34 25 28 26 28 52 1 68 -7 4 -13 16 -13 25 -1 20 -34 62 -49 62 -6 0 -11 -13 -11 -29 0 -16 -6 -31 -15 -35 -8 -3 -15 -15 -15 -27 0 -23 -36 -58 -61 -59 -9 0 -22 -7 -29 -15 -13 -15 -90 -22 -90 -7 0 13 47 52 62 52 15 0 148 127 148 142 0 4 7 8 15 8 8 0 15 -7 15 -15 0 -18 30 -20 31 -2 1 6 0 24 -1 39 -1 19 5 28 20 33 29 9 22 39 -10 42 -20 1 -50 -24 -143 -119z m72 -185 c-15 -18 -34 -1 -25 22 5 14 9 15 21 5 12 -10 13 -16 4 -27z m-213 -18 c4 -10 20 -15 50 -15 32 0 44 -4 44 -15 0 -11 -12 -15 -44 -15 -30 0 -46 -5 -50 -15 -4 -11 -21 -15 -61 -15 -48 0 -56 -3 -53 -17 5 -26 95 -26 117 -1 10 11 29 18 53 18 27 0 38 4 38 15 0 9 9 15 24 15 29 0 44 18 22 26 -18 7 -22 34 -6 34 24 0 50 -41 50 -80 l0 -40 -44 0 c-30 0 -46 -5 -50 -15 -3 -10 -19 -15 -45 -15 -26 0 -41 -5 -45 -16 -5 -13 -15 -15 -52 -9 -52 7 -83 -8 -63 -31 18 -22 96 -18 116 6 12 13 30 20 54 20 24 0 39 5 43 15 3 8 17 15 31 15 20 0 25 -5 25 -25 0 -14 7 -28 15 -31 19 -8 20 -34 1 -34 -8 0 -16 7 -20 15 -3 8 -16 15 -30 15 -13 0 -26 -7 -30 -15 -3 -8 -16 -15 -30 -15 -13 0 -27 -7 -30 -16 -5 -12 -18 -15 -59 -12 -46 3 -52 1 -52 -17 0 -18 5 -20 55 -16 33 2 58 9 63 17 4 8 17 14 27 14 10 0 23 7 28 16 12 22 32 9 32 -22 0 -18 -5 -24 -22 -24 -25 -1 -68 -32 -68 -49 0 -6 7 -11 15 -11 8 0 15 -7 15 -15 0 -8 -7 -15 -15 -15 -8 0 -15 -5 -15 -10 0 -6 7 -13 15 -16 8 -4 15 -11 15 -16 0 -16 -44 -47 -67 -48 -26 0 -31 -25 -7 -34 9 -3 14 -15 12 -28 -5 -34 -52 -32 -56 2 -2 13 -11 29 -19 35 -9 7 -13 23 -11 45 3 31 7 36 38 40 41 6 80 29 80 47 0 19 -57 16 -64 -3 -4 -11 -17 -14 -43 -12 -31 2 -38 7 -38 24 -1 12 -8 28 -17 37 -9 9 -14 26 -11 40 4 18 -4 33 -27 57 -28 29 -36 44 -39 73 -1 10 -59 9 -65 -1 -3 -5 8 -22 24 -37 17 -16 30 -36 30 -46 0 -9 7 -22 15 -29 8 -7 15 -20 15 -29 0 -9 8 -24 18 -32 13 -11 19 -31 20 -65 2 -31 8 -51 18 -57 9 -5 13 -16 9 -27 -4 -13 1 -22 15 -30 28 -15 28 -70 -1 -88 -31 -20 -7 -44 37 -36 26 5 34 2 43 -15 7 -12 21 -21 32 -21 11 0 32 -14 46 -31 23 -26 31 -30 60 -24 25 4 33 2 33 -8 0 -8 -7 -18 -16 -21 -9 -4 -14 -13 -10 -21 3 -8 -4 -24 -15 -34 -12 -11 -19 -24 -15 -29 3 -5 -3 -17 -14 -27 -11 -10 -20 -26 -20 -35 0 -26 -32 -49 -70 -52 -34 -3 -35 -2 -32 33 2 23 -3 41 -13 49 -8 7 -15 20 -15 30 0 10 -7 23 -15 30 -8 7 -15 25 -15 40 0 41 -41 80 -85 80 -22 0 -38 6 -41 15 -4 9 -19 15 -41 15 -28 0 -44 8 -74 39 -22 21 -39 48 -39 59 0 15 -7 22 -27 24 -21 2 -28 9 -28 24 0 11 -8 28 -18 38 -12 12 -17 30 -15 50 4 44 37 47 71 7 14 -17 33 -31 42 -31 25 0 65 -41 65 -67 0 -26 34 -40 56 -22 17 14 9 79 -12 92 -8 4 -14 17 -14 27 0 11 -16 35 -35 55 -31 31 -42 35 -85 35 -49 0 -90 -23 -90 -50 0 -16 -18 -12 -28 7 -12 20 -42 10 -42 -14 0 -10 9 -26 20 -36 11 -9 17 -23 14 -32 -4 -8 1 -17 10 -21 9 -3 16 -17 16 -30 0 -13 9 -28 20 -34 11 -6 20 -20 20 -31 0 -11 7 -22 15 -25 8 -4 15 -12 15 -20 0 -20 -47 -18 -58 2 -5 9 -20 17 -33 18 -18 1 -23 7 -22 23 1 11 -4 26 -12 33 -11 9 -16 7 -25 -9 -15 -29 -42 -26 -70 9 -14 16 -30 29 -36 30 -7 0 -14 7 -18 15 -3 8 -15 15 -26 15 -20 0 -60 32 -60 49 0 5 7 11 15 15 23 8 18 44 -10 70 -31 29 -54 25 -80 -15 -19 -27 -45 -39 -45 -20 0 4 -27 35 -60 69 -33 33 -60 67 -60 75 0 8 -7 20 -15 27 -8 7 -12 16 -9 21 9 16 39 10 57 -11 12 -14 29 -20 61 -20 26 0 48 -6 56 -15 7 -8 23 -15 35 -15 13 0 26 -7 29 -16 6 -15 18 -16 91 -10 59 5 85 4 85 -4 0 -6 -7 -13 -15 -16 -8 -4 -15 -16 -15 -28 0 -12 -13 -33 -30 -46 -28 -24 -43 -80 -20 -80 17 0 48 37 52 62 2 17 10 24 31 26 19 2 27 9 27 24 0 25 39 68 63 68 10 0 29 10 43 23 22 21 23 25 10 36 -12 10 -17 8 -26 -9 l-11 -21 -24 23 c-28 26 -32 56 -10 64 9 4 15 19 15 41 0 53 33 83 92 83 29 0 50 -5 55 -14 4 -7 25 -17 46 -22 21 -5 38 -13 39 -19 1 -30 18 -41 57 -37 23 2 41 8 41 13 0 5 10 9 23 9 12 0 30 9 40 20 9 11 25 20 34 20 10 1 29 14 43 30 26 32 57 39 66 15z m-776 -375 c0 -29 -2 -30 -45 -30 -33 0 -45 4 -45 15 0 9 9 15 24 15 13 0 29 7 36 15 19 23 30 18 30 -15z m900 15 c0 -8 -7 -15 -15 -15 -8 0 -15 7 -15 15 0 8 7 15 15 15 8 0 15 -7 15 -15z m-450 -30 c0 -8 -7 -15 -15 -15 -8 0 -15 7 -15 15 0 8 7 15 15 15 8 0 15 -7 15 -15z m120 -322 c0 -17 -46 -53 -67 -53 -14 0 -23 -6 -23 -16 0 -9 -5 -14 -12 -12 -16 6 -23 28 -8 28 6 0 23 14 37 30 22 27 73 43 73 23z"/> <path d="M638 989 c-25 -26 -23 -66 2 -74 15 -5 30 4 60 35 22 23 40 46 40 51 0 18 -84 8 -102 -12z"/> <path d="M183 803 c-26 -10 -13 -33 18 -33 24 0 30 4 27 17 -3 18 -24 26 -45 16z"/> <path d="M453 623 c-25 -9 -14 -33 15 -33 35 0 45 9 31 27 -12 13 -25 15 -46 6z"/> </g> </svg> 