 <svg  version="1.0" xmlns="http://www.w3.org/2000/svg"  width="150.000000pt" height="150.000000pt" viewBox="0 0 150.000000 150.000000"  preserveAspectRatio="xMidYMid meet">  <g transform="translate(0.000000,150.000000) scale(0.100000,-0.100000)" fill="#6f411b" stroke="none"> <path d="M1130 1421 c-6 -12 -20 -21 -30 -21 -28 0 -60 -35 -60 -65 0 -27 -24 -35 -34 -10 -3 8 -14 15 -25 15 -11 0 -25 9 -31 20 -8 16 -21 20 -58 20 -74 0 -93 -33 -46 -76 14 -13 34 -24 45 -24 11 0 22 -7 25 -15 4 -9 19 -15 35 -15 23 0 29 -4 29 -22 0 -29 -130 -158 -158 -158 -11 0 -23 -7 -26 -16 -13 -33 -28 -1 -21 46 6 40 4 50 -11 58 -13 7 -18 20 -16 43 2 22 -4 38 -18 51 -11 11 -18 24 -14 29 8 14 -15 39 -38 39 -10 0 -21 7 -24 15 -5 12 -28 15 -124 15 -96 0 -119 -3 -124 -15 -3 -8 -14 -15 -24 -15 -22 0 -77 -54 -68 -68 3 -5 -3 -17 -14 -27 -11 -10 -20 -26 -20 -37 0 -12 -7 -18 -24 -18 -13 0 -26 -7 -30 -15 -4 -11 -20 -15 -55 -15 -41 0 -52 -4 -61 -21 -10 -18 -19 -20 -61 -17 -61 4 -64 -10 -14 -66 27 -30 39 -37 59 -34 17 4 31 -1 43 -14 16 -18 30 -20 123 -18 58 2 109 2 115 1 5 0 -5 -14 -23 -30 -17 -17 -32 -37 -32 -45 0 -8 -9 -24 -21 -35 -12 -11 -18 -24 -15 -30 4 -6 -2 -18 -13 -27 -10 -9 -17 -23 -14 -30 7 -19 -37 -64 -64 -64 -12 0 -23 -6 -26 -12 -2 -9 -28 -13 -78 -13 -67 0 -74 -2 -74 -20 0 -17 7 -20 44 -20 27 0 46 -5 48 -12 4 -10 40 -13 139 -13 90 0 134 -4 134 -11 0 -17 -43 -48 -67 -49 -27 0 -30 -18 -6 -36 10 -7 14 -16 10 -21 -5 -4 -14 0 -21 10 -10 12 -27 17 -65 17 -37 0 -53 4 -57 15 -4 8 -12 15 -19 15 -7 0 -15 -7 -19 -15 -3 -8 -14 -15 -25 -15 -11 0 -38 -17 -61 -38 -34 -32 -38 -41 -27 -51 8 -6 21 -9 30 -5 10 3 20 -2 27 -16 9 -17 19 -20 48 -18 46 4 58 35 16 40 -48 5 -41 28 9 28 32 0 47 5 51 16 3 9 15 14 28 12 23 -3 23 -3 21 -208 l-1 -205 -26 -3 c-27 -3 -37 -32 -11 -32 8 0 15 -7 15 -15 0 -19 -26 -19 -34 0 -8 21 -82 21 -90 0 -3 -8 -16 -15 -30 -15 -14 0 -28 -5 -31 -10 -4 -6 33 -10 104 -10 67 0 111 4 111 10 0 6 18 10 39 10 28 0 48 7 65 24 25 22 26 28 26 139 0 103 -2 118 -20 135 -20 18 -20 19 15 48 19 16 35 36 35 45 0 18 36 54 54 54 7 0 32 21 56 48 24 26 47 47 52 47 4 0 8 -25 8 -55 0 -60 22 -95 60 -95 10 0 24 -9 31 -21 9 -17 17 -20 43 -15 24 5 36 1 49 -15 14 -15 25 -19 47 -14 23 5 31 2 40 -15 10 -19 19 -21 71 -19 44 2 63 -2 78 -15 13 -12 33 -16 66 -15 36 2 49 -1 57 -14 6 -11 22 -17 44 -17 22 0 37 -6 40 -15 5 -12 26 -15 103 -15 62 0 101 4 109 12 7 7 12 33 12 60 0 38 -4 50 -21 59 -20 10 -21 17 -18 112 4 97 3 102 -16 102 -15 0 -21 -8 -23 -30 -2 -16 -9 -33 -15 -37 -6 -4 -11 -36 -12 -75 0 -57 -3 -68 -18 -71 -11 -2 -28 6 -39 18 -14 14 -29 20 -44 17 -15 -2 -30 3 -41 15 -16 18 -29 19 -126 17 -92 -3 -110 -1 -118 13 -5 10 -17 14 -29 11 -13 -3 -22 1 -26 12 -5 12 9 32 45 69 29 29 51 57 50 62 -6 31 2 33 107 27 96 -6 108 -4 120 12 11 15 26 18 77 16 47 -1 67 2 77 14 7 8 20 15 29 15 30 0 41 23 41 85 0 34 -5 66 -12 73 -18 18 -43 15 -63 -8 -10 -11 -21 -17 -26 -14 -5 3 -16 -4 -26 -16 -10 -11 -27 -20 -39 -20 -12 0 -24 -7 -28 -15 -9 -25 -36 -17 -77 24 -48 48 -52 81 -10 81 16 0 31 6 35 15 3 8 16 15 30 15 19 0 25 6 28 27 4 35 33 42 59 14 22 -24 40 -26 57 -9 22 22 13 42 -38 88 -50 45 -63 76 -35 86 8 4 15 16 15 28 0 13 14 34 33 50 32 27 33 30 33 99 -1 65 -3 72 -21 72 -15 0 -21 -8 -23 -29 -3 -19 -24 -49 -67 -92 -58 -60 -66 -64 -107 -64 -34 0 -50 6 -66 23 -25 27 -29 67 -7 67 10 0 15 10 15 30 0 20 -5 30 -15 30 -8 0 -15 7 -15 15 0 8 7 15 15 15 8 0 15 -7 15 -15 0 -8 5 -15 10 -15 17 0 50 39 50 59 0 15 8 21 33 23 24 2 32 8 32 23 0 16 -8 21 -42 23 -34 3 -44 -1 -53 -17z m-172 -100 c12 -11 22 -24 22 -30 0 -20 -44 -11 -67 13 -36 38 2 52 45 17z m-300 -44 c12 -13 19 -26 15 -30 -3 -4 2 -16 13 -28 11 -12 17 -32 16 -49 -2 -19 3 -32 14 -38 14 -8 18 -24 19 -73 0 -35 4 -70 8 -76 14 -23 41 -14 71 22 31 37 59 45 73 21 4 -8 19 -16 33 -18 17 -2 26 -10 28 -26 4 -30 67 -92 93 -92 11 0 22 7 25 15 4 8 12 15 20 15 19 0 18 -49 -1 -56 -10 -4 -15 -20 -15 -45 0 -28 -5 -41 -20 -49 -12 -6 -19 -19 -17 -32 1 -18 -4 -23 -28 -28 -27 -5 -30 -9 -27 -39 3 -28 -2 -38 -32 -63 -20 -16 -36 -37 -36 -47 0 -10 -11 -28 -25 -41 -14 -13 -25 -34 -25 -46 0 -28 -18 -41 -26 -20 -3 9 -16 16 -28 16 -12 0 -29 9 -39 20 -12 15 -24 19 -42 14 -20 -5 -33 2 -66 35 -26 26 -39 46 -35 56 8 23 -22 31 -38 10 -11 -15 -13 -15 -25 -1 -8 9 -24 16 -37 16 -27 0 -33 24 -9 34 8 3 15 12 15 21 0 8 36 49 80 91 67 64 80 82 80 108 0 35 -15 56 -39 56 -9 1 -40 23 -70 50 -54 49 -54 54 -6 62 40 6 25 68 -16 68 -10 0 -23 -9 -29 -20 -6 -11 -21 -20 -34 -20 -13 0 -27 -7 -30 -16 -4 -10 -13 -13 -25 -9 -13 4 -23 0 -29 -11 -8 -15 -26 -17 -138 -16 -70 1 -130 6 -133 11 -3 5 -16 11 -29 12 -30 5 -30 23 0 27 13 2 27 10 31 18 6 10 18 13 41 9 23 -5 36 -2 45 9 8 9 21 16 30 16 20 0 108 87 98 97 -4 4 9 24 30 45 l37 38 106 0 c99 0 108 -2 128 -23z m382 -87 c0 -20 -5 -30 -15 -30 -10 0 -15 10 -15 30 0 20 5 30 15 30 10 0 15 -10 15 -30z m298 12 c2 -7 -3 -12 -12 -12 -9 0 -16 -7 -16 -15 0 -8 -5 -15 -11 -15 -6 0 -22 -13 -36 -30 -22 -27 -31 -30 -79 -30 -41 0 -54 -4 -54 -15 0 -11 11 -15 36 -15 25 0 44 -8 65 -27 16 -16 38 -30 50 -33 39 -9 19 -25 -36 -28 -38 -2 -55 -7 -55 -16 0 -8 7 -17 16 -20 27 -10 5 -26 -37 -26 l-39 0 0 43 c-1 34 -6 47 -30 67 -17 13 -30 32 -30 41 0 9 -7 22 -15 29 -29 24 -14 30 74 30 70 0 90 3 95 15 3 8 17 15 31 15 16 0 25 6 25 15 0 8 7 15 15 15 8 0 15 7 15 16 0 17 22 14 28 -4z m-330 -102 c2 -14 10 -29 18 -33 8 -4 14 -19 14 -31 0 -13 7 -26 15 -30 8 -3 15 -17 15 -31 0 -42 -36 -31 -96 29 -30 30 -54 60 -54 67 0 7 10 23 22 36 28 30 62 27 66 -7z m-510 -106 c5 -8 16 -16 25 -18 17 -2 117 -92 117 -105 0 -5 -7 -11 -15 -15 -8 -3 -15 -13 -15 -23 0 -22 -59 -83 -80 -83 -8 0 -28 -16 -44 -35 -18 -21 -39 -35 -52 -35 -12 0 -24 -7 -28 -15 -7 -20 -210 -23 -204 -2 3 6 15 13 27 15 29 5 61 37 61 62 0 10 9 24 21 30 12 7 18 18 15 26 -3 7 4 23 15 33 12 11 18 24 15 30 -4 6 2 18 14 28 11 10 20 27 20 39 0 12 7 25 16 28 10 4 14 12 10 22 -9 24 2 34 39 34 20 0 38 -6 43 -16z m902 -237 c0 -51 -39 -77 -115 -77 -44 0 -64 -4 -68 -13 -4 -10 -27 -14 -88 -13 -74 1 -84 3 -87 20 -3 11 3 25 11 31 8 6 17 22 19 35 5 37 36 37 69 1 25 -27 34 -31 82 -31 40 0 56 4 61 15 3 8 16 15 28 15 13 1 34 14 47 30 29 34 41 31 41 -13z m-930 -122 c0 -8 -7 -15 -15 -15 -8 0 -15 7 -15 15 0 8 7 15 15 15 8 0 15 -7 15 -15z m60 -60 c0 -8 -4 -15 -9 -15 -5 0 -52 -43 -105 -95 -89 -87 -96 -97 -96 -134 0 -25 5 -41 15 -45 12 -4 15 -25 15 -98 0 -80 -3 -95 -22 -115 -12 -13 -25 -23 -30 -23 -4 0 -8 91 -8 201 l0 201 39 39 c21 22 46 39 55 39 10 0 29 14 43 30 20 24 33 30 64 30 28 0 39 -4 39 -15z m146 -90 c4 -8 16 -15 29 -15 12 0 28 -7 35 -15 7 -8 21 -15 32 -15 10 0 21 -7 24 -15 5 -11 23 -15 75 -15 50 0 70 -4 76 -15 7 -11 36 -16 123 -19 85 -4 116 -9 122 -20 5 -8 16 -12 28 -9 12 3 22 -1 26 -11 8 -22 106 -23 124 -1 22 26 31 16 28 -27 l-3 -43 -79 -1 c-65 -1 -81 2 -96 19 -11 11 -24 16 -31 12 -7 -5 -17 -1 -25 10 -10 14 -29 18 -81 20 -41 1 -68 6 -71 13 -2 8 -28 12 -73 12 -53 0 -71 4 -75 15 -4 8 -17 15 -30 15 -14 0 -27 7 -30 15 -4 10 -20 15 -44 15 -21 0 -43 7 -50 15 -7 8 -19 15 -28 15 -17 0 -62 38 -62 52 0 14 50 8 56 -7z"/> <path d="M765 881 c-3 -10 -3 -31 1 -45 4 -19 2 -28 -10 -32 -9 -3 -16 -17 -16 -30 0 -13 -9 -28 -20 -34 -23 -12 -28 -68 -8 -88 18 -18 133 -16 148 2 6 8 10 33 9 55 -2 27 2 46 14 59 14 15 17 33 15 73 -3 46 -6 54 -23 54 -18 0 -20 -7 -21 -59 -1 -37 -6 -61 -15 -67 -7 -4 -14 -25 -14 -46 0 -36 -2 -38 -34 -41 -38 -4 -65 13 -38 24 9 3 17 17 17 30 0 12 7 27 16 32 24 13 26 125 2 130 -9 2 -19 -5 -23 -17z"/> </g> </svg> 