<svg xmlns="http://www.w3.org/2000/svg" version="1.0" width="50.000000pt" height="50.000000pt" viewBox="0 0 50.000000 50.000000" preserveAspectRatio="xMidYMid meet">

<g transform="translate(0.000000,50.000000) scale(0.100000,-0.100000)" fill="#FE4365" stroke="none">
<path d="M49 473 c-27 -11 -29 -15 -29 -73 0 -74 2 -74 129 -25 104 40 171 46 171 16 0 -16 -13 -24 -57 -36 -163 -46 -166 -47 -190 -95 -12 -25 -28 -67 -35 -93 -14 -54 -6 -67 44 -67 15 0 47 -9 70 -19 56 -25 144 -51 174 -51 19 0 25 8 35 43 6 23 20 63 31 89 l20 46 -39 36 c-34 31 -36 36 -23 50 9 9 36 26 60 38 42 22 45 26 48 69 l3 46 -49 21 c-42 18 -66 21 -191 19 -86 -1 -154 -6 -172 -14z m56 -9 c-22 -8 -48 -24 -59 -37 -17 -21 -18 -21 -15 -2 4 22 62 55 94 54 12 0 4 -6 -20 -15z m295 -3 c42 -18 45 -21 45 -57 0 -36 -3 -41 -43 -61 -84 -42 -93 -66 -37 -109 19 -14 35 -29 35 -33 0 -4 -29 0 -65 8 -45 10 -65 20 -65 31 -1 15 -52 43 -103 56 -21 5 -31 2 -41 -11 -9 -13 -15 -15 -20 -6 -9 13 39 35 111 51 100 22 113 29 113 61 0 28 -1 29 -50 29 -34 0 -80 -12 -140 -35 -123 -48 -123 -48 -87 20 21 38 25 40 75 43 28 2 52 7 52 12 0 23 163 24 220 1z m-232 -190 c3 -8 -1 -12 -9 -9 -7 2 -15 10 -17 17 -3 8 1 12 9 9 7 -2 15 -10 17 -17z m5 -32 c-34 -13 -57 -49 -58 -90 0 -35 -3 -39 -25 -39 -14 0 -32 5 -40 10 -12 8 -9 10 13 10 20 0 27 5 27 20 0 11 -6 20 -14 20 -8 0 -17 4 -21 9 -3 6 7 9 22 8 19 -1 28 3 31 16 2 12 -3 17 -17 17 -24 0 -25 4 -12 29 9 16 16 17 61 7 36 -7 46 -12 33 -17z m71 15 c9 -3 14 -10 11 -15 -7 -10 -35 0 -35 12 0 11 3 11 24 3z m0 -45 c46 -20 47 -21 44 -61 -2 -30 -10 -46 -29 -60 -23 -18 -31 -18 -67 -7 -56 16 -76 39 -67 79 7 32 40 70 61 70 6 0 33 -9 58 -21z m-144 -9 c0 -5 -4 -10 -9 -10 -6 0 -13 5 -16 10 -3 6 1 10 9 10 9 0 16 -4 16 -10z m238 0 c43 -1 47 -14 23 -89 -24 -76 -32 -82 -86 -61 l-27 10 27 22 c24 19 26 26 23 75 -2 41 0 52 10 48 8 -3 21 -5 30 -5z m-258 -50 c0 -5 -6 -10 -14 -10 -8 0 -18 5 -21 10 -3 6 3 10 14 10 12 0 21 -4 21 -10z" fill="#FE4365"/>
<path d="M157 193 c-10 -9 -8 -55 2 -71 4 -7 28 -14 52 -15 43 -2 44 -1 47 30 3 27 -2 34 -27 47 -32 17 -63 21 -74 9z m71 -19 c22 -15 30 -48 13 -58 -5 -3 -23 -3 -40 0 -22 5 -33 14 -37 30 -11 44 21 58 64 28z" fill="#FE4365"/>
<path d="M202 151 c16 -25 31 -27 26 -4 -2 10 -11 19 -21 21 -16 3 -17 1 -5 -17z" fill="#FE4365"/>
<path d="M318 155 c3 -17 9 -21 25 -17 12 3 16 7 9 10 -9 3 -10 8 -2 17 8 9 5 13 -13 13 -19 0 -23 -5 -19 -23z" fill="#FE4365"/>
<path d="M302 71 c4 -13 18 -16 19 -4 0 4 -5 9 -11 12 -7 2 -11 -2 -8 -8z" fill="#FE4365"/>
</g>
</svg>